<?xml version="1.0" encoding="UTF-8" standalone="no"?>
<!-- Generator: Adobe Illustrator 15.0.2, SVG Export Plug-In . SVG Version: 6.00 Build 0)  -->

<svg
   version="1.1"
   id="Ebene_1"
   x="0px"
   y="0px"
   width="165.18565mm"
   height="32.482224mm"
   viewBox="0 0 585.30348 115.09449"
   enable-background="new 0 0 717.17 540"
   xml:space="preserve"
   inkscape:version="1.1.2 (0a00cf5339, 2022-02-04)"
   sodipodi:docname="opencast-editor-microtype.svg"
   xmlns:inkscape="http://www.inkscape.org/namespaces/inkscape"
   xmlns:sodipodi="http://sodipodi.sourceforge.net/DTD/sodipodi-0.dtd"
   xmlns="http://www.w3.org/2000/svg"
   xmlns:svg="http://www.w3.org/2000/svg"
   xmlns:rdf="http://www.w3.org/1999/02/22-rdf-syntax-ns#"
   xmlns:cc="http://creativecommons.org/ns#"
   xmlns:dc="http://purl.org/dc/elements/1.1/"><metadata
   id="metadata51"><rdf:RDF><cc:Work
       rdf:about=""><dc:format>image/svg+xml</dc:format><dc:type
         rdf:resource="http://purl.org/dc/dcmitype/StillImage" /></cc:Work></rdf:RDF></metadata><defs
   id="defs49" /><sodipodi:namedview
   pagecolor="#000000"
   bordercolor="#666666"
   borderopacity="1"
   objecttolerance="10"
   gridtolerance="10"
   guidetolerance="10"
   inkscape:pageopacity="0"
   inkscape:pageshadow="2"
   inkscape:window-width="1920"
   inkscape:window-height="1049"
   id="namedview47"
   showgrid="false"
   fit-margin-top="5"
   fit-margin-left="5"
   fit-margin-bottom="5"
   fit-margin-right="5"
   inkscape:zoom="1.7481481"
   inkscape:cx="358.66526"
   inkscape:cy="19.163136"
   inkscape:window-x="0"
   inkscape:window-y="0"
   inkscape:window-maximized="1"
   inkscape:current-layer="Ebene_1"
   units="mm"
   inkscape:pagecheckerboard="0"
   inkscape:document-units="mm" /><g
   id="g3"
   style="fill:#ffffff;fill-opacity:1"
   transform="matrix(1.1241114,0,0,1.1241114,-189.53592,-271.99556)"><g
     id="g5"
     style="fill:#ffffff;fill-opacity:1"><path
       style="fill:#ffffff;fill-opacity:1"
       d="m 219.23899,257.72546 0.001,0.58345 -34.86996,34.85638 34.90819,34.84282 v 0.37499 l 0.1875,-0.18749 0.12088,0.12088 35.13763,-35.1512 -35.1771,-35.16352 -0.016,0.016 -0.29234,-0.29234 z m 28.15352,0.20846 0.0222,16.51664 0.17268,0.17269 v 0.0222 l 18.63457,18.63333 -18.80725,18.80725 0.0173,16.50553 0.17146,-0.17146 v 0.10362 l 35.13763,-35.1512 -0.0518,-0.0518 0.0518,-0.0518 -35.34856,-35.33499 z m 72.20199,16.2465 c -1.78847,0.0374 -3.57301,0.34057 -5.24857,0.88319 -5.81212,1.92127 -9.6997,7.60532 -10.64391,13.49208 -1.00035,5.97702 -0.32001,12.69391 3.68695,17.49973 2.86126,3.62624 7.46708,5.64618 12.05997,5.53844 3.69724,0.0383 7.43955,-1.11894 10.24303,-3.58086 4.29493,-3.62438 6.19657,-9.36277 6.20453,-14.85634 0.16567,-5.46563 -1.39919,-11.28717 -5.5335,-15.08577 -2.87648,-2.76943 -6.83387,-3.97285 -10.7685,-3.89047 z m 183.39383,0.007 c -3.93323,-0.0442 -8.08277,0.75109 -10.91281,3.6339 -2.91388,3.00152 -3.34765,7.8227 -1.73925,11.57028 1.54457,3.40377 5.01183,5.29586 8.30149,6.68437 2.12469,1.0487 4.7021,2.06857 5.59888,4.45172 0.60057,1.74353 -0.57646,3.63317 -2.28568,4.14457 -4.28556,1.40174 -9.14636,-0.17066 -12.37946,-3.16764 v 8.07083 c 0.22966,0.12812 0.46414,0.24772 0.70186,0.36018 4.03605,1.76778 8.63829,1.98967 12.94687,1.29148 3.55077,-0.53025 7.06756,-2.66144 8.3459,-6.15149 0.98226,-2.92198 1.02285,-6.30603 -0.33551,-9.12054 -1.81091,-3.59949 -5.70527,-5.29994 -9.17112,-6.90392 -1.81573,-0.95665 -4.11706,-1.96629 -4.67622,-4.14458 -0.4685,-1.9159 1.18536,-3.59331 2.95302,-3.97682 3.56971,-0.87438 7.50092,0.0677 10.46629,2.18824 v -7.54165 c -1.94706,-0.81239 -4.04827,-1.19326 -6.14656,-1.32232 -0.54862,-0.0369 -1.10581,-0.0603 -1.6677,-0.0666 z m -57.50847,0.001 c -5.24443,0 -9.50914,1.79985 -12.79638,5.39782 -3.28851,3.5986 -4.93279,8.28992 -4.93279,14.07306 0,5.43138 1.46288,9.77864 4.38635,13.04062 2.92283,3.26198 6.93659,4.89331 12.04271,4.89331 3.91374,0 7.08632,-0.63986 9.51402,-1.91687 v -7.44173 c -2.4277,1.54731 -5.10542,2.32022 -8.02888,2.32022 -3.06241,0 -5.49909,-1.03805 -7.30976,-3.1146 -1.8094,-2.07592 -2.7137,-4.86378 -2.7137,-8.3607 0,-3.64849 0.95786,-6.53995 2.87652,-8.67524 1.91867,-2.13528 4.44013,-3.20341 7.56633,-3.20341 2.84578,0 5.382,0.72347 7.60949,2.16973 v -7.84509 c -2.22812,-0.89112 -4.96393,-1.33712 -8.21391,-1.33712 z m -225.97196,0.31208 18.55808,18.55808 -18.66293,18.66293 -18.60372,-18.55808 z m 121.01178,0.29357 v 36.16761 h 7.49601 v -12.45964 h 3.57223 c 4.023,0 7.23549,-1.12169 9.64108,-3.36623 2.40622,-2.24518 3.608,-5.18316 3.608,-8.81587 0,-7.68412 -4.1917,-11.52587 -12.57559,-11.52587 z m 28.28797,0 v 36.16761 h 19.95441 v -6.60789 h -12.45963 v -8.27312 h 10.88322 v -6.60789 h -10.88322 v -8.04492 h 11.69486 v -6.63379 z m 24.39133,0 v 36.16884 h 7.07662 v -19.87547 c 0,-2.62284 -0.0619,-4.57288 -0.18503,-5.85051 h 0.0913 c 0.31009,0.67197 0.8668,1.67232 1.6714,3.00112 l 13.71411,22.72363 h 7.56385 v -36.16761 h -7.07785 v 20.00252 c 0,2.47191 0.0618,4.12799 0.18626,4.96733 h -0.0925 c -0.51093,-0.97449 -1.06703,-1.95901 -1.67017,-2.95055 l -13.20343,-22.0193 h -8.07453 z m 73.93259,0 -12.11425,36.16761 h 8.1214 l 2.34489,-8.04492 h 11.83302 l 2.36833,8.04492 h 8.1658 l -11.83301,-36.16761 z m 46.62033,0 v 6.63379 h 9.44495 v 29.53382 h 7.51698 v -29.53382 h 9.49182 10e-4 v -6.63379 h -26.45499 z m -165.73621,6.25511 h 2.94684 c 3.99206,0 5.9862,1.85874 5.9862,5.57544 0,3.7988 -1.99477,5.70003 -5.9862,5.70003 h -2.94684 z m -28.80235,0.15172 c 0.18612,-0.008 0.37292,-0.008 0.56125,0 0.60875,-10e-5 1.2194,0.059 1.81325,0.19489 3.48121,0.74389 5.50196,4.24534 6.06021,7.52562 0.63876,3.99683 0.64114,8.43096 -1.50487,12.00447 -1.48677,2.57327 -4.54648,3.98356 -7.47134,3.58086 -3.55247,-0.29975 -6.09331,-3.49763 -6.9027,-6.76701 -0.93637,-3.95463 -0.87612,-8.34514 0.95103,-12.04394 1.19246,-2.50172 3.70148,-4.37577 6.49317,-4.49489 z m 152.07145,0.0506 h 0.18626 c 0.10736,1.26122 0.29295,2.34458 0.55631,3.25276 l 3.57223,12.15742 h -8.51365 l 3.61786,-12.25734 c 0.30946,-1.04206 0.50331,-2.09309 0.58099,-3.15284 z"
       id="polygon7"
       inkscape:connector-curvature="0" /></g><g
     id="g9"
     style="fill:#ffffff;fill-opacity:1" /><g
     id="g13"
     style="fill:#ffffff;fill-opacity:1" /></g><g
   id="g35"
   style="fill:#000000;fill-opacity:1"
   transform="translate(-166.65349,-231.21359)" /><g
   id="g39"
   style="fill:#000000;fill-opacity:1"
   transform="translate(-166.65349,-231.21359)" /><g
   id="g43"
   style="fill:#000000;fill-opacity:1"
   transform="translate(-166.65349,-231.21359)" /><text
   xml:space="preserve"
   style="font-style:normal;font-variant:normal;font-weight:300;font-stretch:normal;font-size:37.5px;line-height:125%;font-family:Comfortaa;-inkscape-font-specification:'Comfortaa Light';letter-spacing:0px;word-spacing:0px;fill:#000000;fill-opacity:1;stroke:none;stroke-width:0.9375px;stroke-linecap:butt;stroke-linejoin:miter;stroke-opacity:1"
   x="421.01236"
   y="77.535515"
   id="text824"><tspan
     sodipodi:role="line"
     id="tspan822"
     x="421.01236"
     y="77.535515"
     style="font-style:normal;font-variant:normal;font-weight:300;font-stretch:normal;font-family:Comfortaa;-inkscape-font-specification:'Comfortaa Light';fill:#ffffff;fill-opacity:1;stroke-width:0.9375px">EDITOR</tspan></text>
<text
   xml:space="preserve"
   style="font-size:37.5px;line-height:1.25;font-family:'DejaVu Sans Mono';-inkscape-font-specification:'DejaVu Sans Mono';letter-spacing:0px;word-spacing:0px;stroke-width:0.9375"
   x="594.82733"
   y="73.01049"
   id="text37663"><tspan
     sodipodi:role="line"
     id="tspan37661"
     style="stroke-width:0.9375"
     x="594.82733"
     y="73.01049">q</tspan></text></svg>
