<?xml version="1.0" encoding="UTF-8" standalone="no"?>
<svg
   version="1.1"
   id="Ebene_1"
   x="0px"
   y="0px"
   width="86.185997mm"
   height="32.482224mm"
   viewBox="0 0 305.38327 115.09449"
   enable-background="new 0 0 717.17 540"
   xml:space="preserve"
   xmlnsSvg="http://www.w3.org/2000/svg"><g
   id="g3"
   style="fill:#ffffff;fill-opacity:1"
   transform="matrix(1.1241114,0,0,1.1241114,-189.53592,-271.99556)"><g
     id="g5"
     style="fill:#ffffff;fill-opacity:1"><path
       style="fill:#ffffff;fill-opacity:1"
       d="m 219.23899,257.72546 0.001,0.58345 -34.86996,34.85638 34.90819,34.84282 v 0.37499 l 0.1875,-0.18749 0.12088,0.12088 35.13763,-35.1512 -35.1771,-35.16352 -0.016,0.016 -0.29234,-0.29234 z m 28.15352,0.20846 0.0222,16.51664 0.17268,0.17269 v 0.0222 l 18.63457,18.63333 -18.80725,18.80725 0.0173,16.50553 0.17146,-0.17146 v 0.10362 l 35.13763,-35.1512 -0.0518,-0.0518 0.0518,-0.0518 -35.34856,-35.33499 z m -27.88461,16.56658 18.55808,18.55808 -18.66293,18.66293 -18.60372,-18.55808 z"
       id="polygon7" /></g><g
     id="g9"
     style="fill:#ffffff;fill-opacity:1" /><g
     id="g13"
     style="fill:#ffffff;fill-opacity:1" /></g><g
   id="g35"
   style="fill:#000000;fill-opacity:1"
   transform="translate(-166.65349,-231.21359)" /><g
   id="g39"
   style="fill:#000000;fill-opacity:1"
   transform="translate(-166.65349,-231.21359)" /><g
   id="g43"
   style="fill:#000000;fill-opacity:1"
   transform="translate(-166.65349,-231.21359)" /><g
   aria-label="EDITOR"
   id="text824"
   transform="translate(-284.88323,6.0632848e-4)"><path
     d="m 425.88736,77.535515 h 18.0375 c 0.6,0 1.125,-0.4875 1.125,-1.125 0,-0.6 -0.525,-1.125 -1.125,-1.125 h -16.9125 v -11.25 h 12.4125 c 0.6375,0 1.125,-0.525 1.125,-1.1625 0,-0.6375 -0.4875,-1.125 -1.125,-1.125 h -12.4125 v -11.25 h 16.9125 c 0.6,0 1.125,-0.525 1.125,-1.125 0,-0.6375 -0.525,-1.125 -1.125,-1.125 h -18.0375 c -0.6375,0 -1.125,0.4875 -1.125,1.125 v 27.0375 c 0,0.6375 0.4875,1.125 1.125,1.125 z"
     style="fill:#ffffff"
     id="path176" /><path
     d="m 451.61239,77.535515 h 6.75 c 8.5875,0 14.6625,-6.075 14.6625,-14.6625 0,-8.55 -6.075,-14.625 -14.6625,-14.625 h -6.75 c -0.675,0 -1.125,0.45 -1.125,1.125 v 27.0375 c 0,0.675 0.45,1.125 1.125,1.125 z m 1.125,-2.025 v -25.2375 h 5.625 c 7.275,0 12.4125,5.3625 12.4125,12.6 0,7.275 -5.1375,12.6375 -12.4125,12.6375 z"
     style="fill:#ffffff"
     id="path178" /><path
     d="m 480.14988,77.535515 c 0.6375,0 1.125,-0.4875 1.125,-1.125 v -27.0375 c 0,-0.6375 -0.4875,-1.125 -1.125,-1.125 -0.6375,0 -1.125,0.4875 -1.125,1.125 v 27.0375 c 0,0.6375 0.4875,1.125 1.125,1.125 z"
     style="fill:#ffffff"
     id="path180" /><path
     d="m 507.82489,48.248015 h -21.225 c -0.6,0 -1.0125,0.4125 -1.0125,1.0125 0,0.6 0.4125,1.0125 1.0125,1.0125 h 9.4875 v 26.1375 c 0,0.6375 0.4875,1.125 1.125,1.125 0.6375,0 1.125,-0.4875 1.125,-1.125 v -26.1375 h 9.4875 c 0.6,0 1.0125,-0.4125 1.0125,-1.0125 0,-0.6 -0.4125,-1.0125 -1.0125,-1.0125 z"
     style="fill:#ffffff"
     id="path182" /><path
     d="m 524.8124,77.910515 c 8.55,0 15,-6.45 15,-15.0375 0,-8.55 -6.45,-15 -15,-15 -8.5875,0 -15.0375,6.45 -15.0375,15 0,8.5875 6.45,15.0375 15.0375,15.0375 z m 0,-2.25 c -7.275,0 -12.7875,-5.5125 -12.7875,-12.7875 0,-7.2375 5.5125,-12.75 12.7875,-12.75 7.2375,0 12.75,5.5125 12.75,12.75 0,7.275 -5.5125,12.7875 -12.75,12.7875 z"
     style="fill:#ffffff"
     id="path184" /><path
     d="m 563.62489,75.810515 -6.45,-10.3125 c 3.7875,-1.0875 6.3,-4.2375 6.3,-8.3625 0,-5.2125 -3.9,-8.8875 -9.375,-8.8875 h -7.1625 c -0.675,0 -1.125,0.45 -1.125,1.125 v 27.0375 c 0,0.675 0.45,1.125 1.125,1.125 0.675,0 1.125,-0.45 1.125,-1.125 v -10.5 h 6.0375 0.675 l 6.9,11.025 c 0.225,0.3375 0.45,0.6 1.0125,0.6 1.1625,0 1.575,-0.7125 0.9375,-1.725 z m -15.5625,-12.15 v -13.1625 h 6.0375 c 4.1625,0 7.125,2.7375 7.125,6.6375 0,3.825 -2.9625,6.525 -7.125,6.525 z"
     style="fill:#ffffff"
     id="path186" /></g>&#10;
</svg>
